<svg id="Layer_1" data-name="Layer 1" xmlns="http://www.w3.org/2000/svg" viewBox="0 0 595.28 841.89"><defs><style>.cls-1,.cls-10,.cls-7{fill:#fbf7df;}.cls-2,.cls-4,.cls-5,.cls-6{fill:#ce3c2e;}.cls-3{fill:none;stroke:#ce3c2e;stroke-miterlimit:10;}.cls-4,.cls-8{font-size:17.51px;}.cls-4,.cls-5,.cls-7,.cls-8,.cls-9{font-family:GlacialIndifference-Regular, Glacial Indifference;}.cls-5{font-size:14.76px;}.cls-6{font-size:42.63px;font-family:NirmalaUI-Semilight, Nirmala UI;font-weight:300;}.cls-7{font-size:12.9px;}.cls-8{fill:#fff;}.cls-9{font-size:27.23px;fill:#783b23;}.cls-10{font-size:38.46px;font-family:PlayfairDisplay-Italic, Playfair Display;font-style:italic;}</style></defs><rect class="cls-1" x="-123.31" y="123.31" width="841.89" height="595.28" transform="translate(718.58 123.31) rotate(90)"/><path class="cls-2" d="M189.86,175.4h13.48a22,22,0,0,1,22,22v102a0,0,0,0,1,0,0H189.86a0,0,0,0,1,0,0v-124A0,0,0,0,1,189.86,175.4Z"/><path class="cls-2" d="M393.91,175.4h13.48a0,0,0,0,1,0,0v124a0,0,0,0,1,0,0H371.91a0,0,0,0,1,0,0v-102A22,22,0,0,1,393.91,175.4Z"/><path class="cls-2" d="M189.86,347.78h13.48a22,22,0,0,1,22,22v102a0,0,0,0,1,0,0H189.86a0,0,0,0,1,0,0v-124A0,0,0,0,1,189.86,347.78Z"/><path class="cls-2" d="M189.86,520.16h13.48a22,22,0,0,1,22,22v102a0,0,0,0,1,0,0H189.86a0,0,0,0,1,0,0v-124A0,0,0,0,1,189.86,520.16Z"/><path class="cls-2" d="M393.91,346.11h13.48a0,0,0,0,1,0,0v124a0,0,0,0,1,0,0H371.91a0,0,0,0,1,0,0v-102A22,22,0,0,1,393.91,346.11Z"/><path class="cls-2" d="M393.91,519.74h13.48a0,0,0,0,1,0,0v124a0,0,0,0,1,0,0H371.91a0,0,0,0,1,0,0v-102A22,22,0,0,1,393.91,519.74Z"/><path class="cls-3" d="M193.43,701.16H290.7a13.35,13.35,0,0,1,13.35,13.35v8.18a0,0,0,0,1,0,0h-124a0,0,0,0,1,0,0v-8.18A13.35,13.35,0,0,1,193.43,701.16Z"/><rect class="cls-2" x="250.04" y="268.01" width="46.07" height="49.1"/><rect class="cls-2" x="299.17" y="268.01" width="45.36" height="49.1"/><path class="cls-2" d="M249.48,175.15H288.6a55.93,55.93,0,0,1,55.93,55.93v34.26a0,0,0,0,1,0,0H249.48a0,0,0,0,1,0,0V175.15A0,0,0,0,1,249.48,175.15Z"/><rect class="cls-2" x="250.23" y="320.34" width="19.85" height="53.72"/><rect class="cls-2" x="270.08" y="320.34" width="55.35" height="19.54"/><rect class="cls-2" x="325.43" y="320.34" width="19.85" height="53.72"/><rect class="cls-2" x="267.51" y="338.85" width="61.45" height="35.22"/><text class="cls-4" transform="translate(415.47 322.25)">Classic Dyed Work</text><text class="cls-5" transform="translate(419.07 338.57)">500 to 1500</text><text class="cls-6" transform="translate(386.86 337.95)">6</text><text class="cls-6" transform="translate(180.07 337.95)">3</text><text class="cls-4" transform="translate(26.12 321.09)">Premium Dyed Work</text><text class="cls-5" transform="translate(91.65 337.42)">1500 to 3000</text><text class="cls-6" transform="translate(386.86 683.5)">4</text><text class="cls-4" transform="translate(414.36 665.78)">Combo Classic Work</text><text class="cls-5" transform="translate(415.14 682.1)">800 to 1500 </text><text class="cls-6" transform="translate(386.86 510.42)">5</text><text class="cls-4" transform="translate(414.4 493.45)">Classic Dyed Work</text><text class="cls-5" transform="translate(414.12 509.77)">500 to 1500 </text><text class="cls-4" transform="translate(26.11 492.85)">Premium Dyed Work</text><text class="cls-5" transform="translate(91.65 509.17)">1500 to 3000</text><text class="cls-6" transform="translate(180.07 510.42)">2</text><text class="cls-5" transform="translate(212.25 715)">Welcome</text><text class="cls-7" transform="translate(263.94 256.13)">Main Office</text><rect class="cls-2" x="274.33" y="555.1" width="45.36" height="88.9"/><text class="cls-8" transform="translate(302.15 638.2) rotate(-90)">Reception</text><text class="cls-7" transform="translate(264.97 311.05)">Lift</text><text class="cls-7" transform="translate(301.76 310.92)">Kitchen</text><text class="cls-7" transform="translate(260.66 367.37)">Sitting Space</text><text class="cls-4" transform="translate(86.35 665.9)">Digital Print</text><text class="cls-5" transform="translate(98.83 682.22)">450 to 1500</text><text class="cls-6" transform="translate(186.55 683.5)">1</text><circle class="cls-1" cx="269.83" cy="282.16" r="2.32" transform="translate(-19.32 19.84) rotate(-4.07)"/><path class="cls-1" d="M272.45,285.46h-5.23c-1.16,0-1.91,1.58-1.4,2.92l2.95,7.61a1.11,1.11,0,0,0,2.12,0l3-7.61C274.36,287,273.61,285.46,272.45,285.46Z"/><circle class="cls-1" cx="279.17" cy="282.16" r="2.32"/><path class="cls-1" d="M281.79,285.46h-5.23c-1.16,0-1.91,1.58-1.4,2.92l2.95,7.61a1.11,1.11,0,0,0,2.12,0l3-7.61C283.7,287,283,285.46,281.79,285.46Z"/><polygon class="cls-1" points="286.96 300.27 261.86 300.27 261.86 276.05 263.62 276.05 263.62 298.5 285.19 298.5 285.19 276.05 286.96 276.05 286.96 300.27"/><polygon class="cls-1" points="266.86 278.04 265.61 276.8 269.94 272.47 274.06 276.59 272.81 277.83 269.94 274.96 266.86 278.04"/><polygon class="cls-1" points="279.07 277.91 274.95 273.79 276.2 272.55 279.07 275.42 282.15 272.34 283.39 273.58 279.07 277.91"/><path class="cls-1" d="M320.56,277.72h-.37v5.73a1.83,1.83,0,0,1-1.51,1.8v-7.53h-1.83v7.53a1.83,1.83,0,0,1-1.51-1.8v-5.73H315a1.46,1.46,0,0,0-1.46,1.46v4.27a3.66,3.66,0,0,0,3.34,3.64v11.59h1.83V287.09a3.66,3.66,0,0,0,3.34-3.64v-4.27A1.46,1.46,0,0,0,320.56,277.72Z"/><path class="cls-1" d="M328.94,285.52v-6.83a1.06,1.06,0,0,0-1.73-.81,6,6,0,0,0-2.16,4.62v5.7a3,3,0,0,0,2.08,2.81v7.67H329V285.52Z"/><circle class="cls-1" cx="274.43" cy="329.09" r="2.92"/><path class="cls-1" d="M290.16,343.23l-5.55-5.3a3.24,3.24,0,0,0-1.75-.87h-3.22L276,333.57a1.68,1.68,0,0,0-1.88-.42l-.33.14a1.66,1.66,0,0,0-1,1.63l-.06,5.11a4.82,4.82,0,0,0,6.7,4.49l4.58-1.94,3.93,3.24a1.72,1.72,0,0,0,2.23-.07A1.74,1.74,0,0,0,290.16,343.23Z"/><path class="cls-1" d="M285.21,346a4.15,4.15,0,0,0-4-.28l-1.63.68a6.2,6.2,0,0,1-8.62-5.7V333h-2.25v7.63a8.43,8.43,0,0,0,8.44,8.44,8.51,8.51,0,0,0,3.31-.67l1.48-.63.21-.08a1.91,1.91,0,0,1,2.7,1.73,1.92,1.92,0,0,1-1.91,1.91H272.73v2.25H283a4.15,4.15,0,0,0,2.25-7.65Z"/><circle class="cls-1" cx="321.08" cy="329.09" r="2.92"/><path class="cls-1" d="M305.35,343.23l5.55-5.3a3.24,3.24,0,0,1,1.75-.87h3.22l3.65-3.49a1.66,1.66,0,0,1,1.87-.42l.33.14a1.66,1.66,0,0,1,1,1.63l.06,5.11a4.82,4.82,0,0,1-6.7,4.49l-4.58-1.94-3.93,3.24a1.72,1.72,0,0,1-2.23-.07A1.74,1.74,0,0,1,305.35,343.23Z"/><path class="cls-1" d="M310.3,346a4.15,4.15,0,0,1,4-.28l1.63.68a6.2,6.2,0,0,0,8.62-5.7V333h2.25v7.63a8.43,8.43,0,0,1-8.44,8.44,8.51,8.51,0,0,1-3.31-.67l-1.47-.63-.22-.08a1.91,1.91,0,0,0-2.7,1.73,1.92,1.92,0,0,0,1.91,1.91h10.23v2.25H312.55A4.15,4.15,0,0,1,310.3,346Z"/><circle class="cls-1" cx="296.56" cy="214.63" r="6.25"/><path class="cls-1" d="M285.6,232.74v-3a7.26,7.26,0,0,1,.54-3c1.13-2.58,4.16-3.92,10.42-3.92s9.3,1.34,10.43,3.92a7.43,7.43,0,0,1,.54,3v3"/><path class="cls-1" d="M296.56,235.12"/><polygon class="cls-1" points="313.63 234.94 279.49 234.94 279.49 210.72 281.89 210.72 281.89 233.18 311.24 233.18 311.24 210.72 313.63 210.72 313.63 234.94"/><path class="cls-3" d="M258.67,305.35"/><path class="cls-3" d="M212.76,670.42h5.77c20.58,0,19.76-19.83,19.76-19.83V512.69c0-18.77-11.53-21.29-11.53-21.29h0c17,0,12.51-26.62,12.51-26.62V330.42s1.56-15-16.45-15h-9.68"/><path class="cls-3" d="M384.8,670.42H379c-20.58,0-19.76-19.83-19.76-19.83V512.69c0-18.77,11.53-21.29,11.53-21.29h0c-17,0-12.51-26.62-12.51-26.62V330.42s-1.56-15,16.45-15h9.68"/><path class="cls-3" d="M218.53,670.42s16.41,1,16.41,18V701"/><text class="cls-9" transform="translate(68.02 90.05)">SAMBHAV STUDIO</text><path class="cls-2" d="M357.53,47.29H595.28a0,0,0,0,1,0,0v60.23a0,0,0,0,1,0,0H322.15a0,0,0,0,1,0,0V82.68a35.38,35.38,0,0,1,35.38-35.38Z"/><text class="cls-10" transform="translate(348.86 90.22)">Ground foor</text></svg>