<svg id="Layer_1" data-name="Layer 1" xmlns="http://www.w3.org/2000/svg" viewBox="0 0 595.28 841.89"><defs><style>.cls-1,.cls-6,.cls-9{fill:#fbf7df;}.cls-2{font-size:16.9px;}.cls-2,.cls-3,.cls-4,.cls-5{fill:#ce3c2e;}.cls-2,.cls-3,.cls-6,.cls-8{font-family:GlacialIndifference-Regular, Glacial Indifference;}.cls-3{font-size:14.24px;}.cls-4{font-size:41.13px;font-family:NirmalaUI-Semilight, Nirmala UI;font-weight:300;}.cls-6{font-size:12.45px;}.cls-7{fill:none;stroke:#ce3c2e;stroke-miterlimit:10;}.cls-8{font-size:28.52px;fill:#783b23;}.cls-9{font-size:74.43px;font-family:PlayfairDisplay-Italic, Playfair Display;font-style:italic;}.cls-10{font-size:36.77px;}</style></defs><rect class="cls-1" x="-123.31" y="123.31" width="841.89" height="595.28" transform="translate(718.58 123.31) rotate(90)"/><text class="cls-2" transform="translate(126.36 675.02)">Classic Silk</text><text class="cls-3" transform="translate(135.39 690.76)">500 to 1500</text><text class="cls-4" transform="translate(212.75 691.45)">7</text><text class="cls-4" transform="translate(212.75 524.94)">8</text><text class="cls-2" transform="translate(115.95 507.9)">Digital Prints</text><text class="cls-3" transform="translate(134.35 523.65)">450 to 1500</text><text class="cls-4" transform="translate(348.18 691.45)">9</text><text class="cls-2" transform="translate(375.2 675.7)">Premium Silk</text><text class="cls-3" transform="translate(375.2 691.45)">1500 to 3000</text><text class="cls-4" transform="translate(336.64 524.94)">10</text><text class="cls-2" transform="translate(377.34 509.92)">Premium Silk</text><text class="cls-3" transform="translate(377.33 524.14)">1500 to 3000</text><path class="cls-5" d="M215,367.44h12.23a22,22,0,0,1,22,22V487a0,0,0,0,1,0,0H215a0,0,0,0,1,0,0V367.44A0,0,0,0,1,215,367.44Z"/><path class="cls-5" d="M215,533.75h12.23a22,22,0,0,1,22,22v97.59a0,0,0,0,1,0,0H215a0,0,0,0,1,0,0V533.75A0,0,0,0,1,215,533.75Z"/><path class="cls-5" d="M363.92,365.84h12.23a0,0,0,0,1,0,0V485.42a0,0,0,0,1,0,0H341.92a0,0,0,0,1,0,0V387.84A22,22,0,0,1,363.92,365.84Z"/><path class="cls-5" d="M363.92,533.34h12.23a0,0,0,0,1,0,0V652.93a0,0,0,0,1,0,0H341.92a0,0,0,0,1,0,0V555.34A22,22,0,0,1,363.92,533.34Z"/><rect class="cls-5" x="280.23" y="290.49" width="44.45" height="47.37"/><rect class="cls-5" x="327.63" y="290.49" width="43.76" height="47.37"/><path class="cls-5" d="M335.61,200.9h35.77a0,0,0,0,1,0,0v87a0,0,0,0,1,0,0h-91.7a0,0,0,0,1,0,0V256.83A55.93,55.93,0,0,1,335.61,200.9Z"/><text class="cls-6" transform="translate(295.72 281.51)">Main Office</text><text class="cls-6" transform="translate(335.14 332.75)">Store</text><path class="cls-5" d="M374.1,251.29h49.58a55.65,55.65,0,0,1,55.65,55.65v30.92a0,0,0,0,1,0,0H374.1a0,0,0,0,1,0,0V251.29A0,0,0,0,1,374.1,251.29Z"/><path class="cls-7" d="M285.57,325.39h-3.64s-18.72-4.41-18.72,24.19V479.2s4.35,25.69-12.07,25.69h0s11.13,2.42,11.13,20.54v133s.79,19.13-19.07,19.13h-5.56"/><path class="cls-7" d="M290.42,325.39h3.63s18.72-4.41,18.72,24.19V479.2s-4.35,25.69,12.07,25.69h0s-11.12,2.42-11.12,20.54v133s-.79,19.13,19.07,19.13h5.56"/><circle class="cls-1" cx="298.04" cy="303.94" r="2.24" transform="translate(-20.8 21.89) rotate(-4.07)"/><path class="cls-1" d="M300.56,307.13h-5c-1.12,0-1.85,1.52-1.35,2.81l2.85,7.35a1.07,1.07,0,0,0,2,0l2.85-7.35C302.41,308.65,301.68,307.13,300.56,307.13Z"/><circle class="cls-1" cx="307.05" cy="303.94" r="2.24"/><path class="cls-1" d="M309.57,307.13h-5c-1.12,0-1.85,1.52-1.35,2.81l2.85,7.35a1.07,1.07,0,0,0,2,0l2.85-7.35C311.42,308.65,310.69,307.13,309.57,307.13Z"/><polygon class="cls-1" points="314.56 321.41 290.34 321.41 290.34 298.04 292.04 298.04 292.04 319.71 312.86 319.71 312.86 298.04 314.56 298.04 314.56 321.41"/><polygon class="cls-1" points="295.17 299.97 293.97 298.77 298.14 294.59 302.11 298.56 300.91 299.76 298.14 297 295.17 299.97"/><polygon class="cls-1" points="306.95 299.84 302.98 295.87 304.18 294.67 306.95 297.43 309.92 294.46 311.12 295.66 306.95 299.84"/><circle class="cls-1" cx="342.3" cy="246.73" r="6.03"/><path class="cls-1" d="M331.72,264.21V261.3a7.1,7.1,0,0,1,.52-2.87c1.09-2.49,4-3.78,10.06-3.78s9,1.29,10.05,3.78a7.1,7.1,0,0,1,.52,2.87v2.91"/><path class="cls-1" d="M342.3,268.06"/><polygon class="cls-1" points="358.76 267.88 325.83 267.88 325.83 244.52 328.14 244.52 328.14 266.19 356.45 266.19 356.45 244.52 358.76 244.52 358.76 267.88"/><circle class="cls-1" cx="391.47" cy="301.31" r="2.86"/><path class="cls-1" d="M394.69,305.37h-6.43c-1.43,0-2.36,1.94-1.72,3.59l3.63,9.37a1.37,1.37,0,0,0,2.61,0l3.63-9.37C397.05,307.31,396.12,305.37,394.69,305.37Z"/><circle class="cls-1" cx="405.32" cy="301.31" r="2.86" transform="translate(-20.34 29.49) rotate(-4.07)"/><path class="cls-1" d="M401.28,319.28h8.08c1.42,0,2.35-1.77,1.71-3.27l-4.26-9.9a1.39,1.39,0,0,0-1.31-.95h-.3a1.4,1.4,0,0,0-1.31.94L399.56,316C398.92,317.51,399.85,319.28,401.28,319.28Z"/><polygon class="cls-1" points="382.92 293.85 414.26 293.85 414.26 321.41 412.06 321.41 412.06 295.85 385.12 295.85 385.12 321.41 382.92 321.41 382.92 293.85"/><path class="cls-1" d="M361.58,299v5.52H337.21a.89.89,0,0,1,0-.11c0-1.74,0-3.49,0-5.24a.75.75,0,0,1,0-.21.93.93,0,0,1,1-.68h22.44a.93.93,0,0,1,.82.52A2,2,0,0,0,361.58,299Z"/><path class="cls-1" d="M338.41,305.71h21.93v14.65a.93.93,0,0,1-1,1.05H339.46a1,1,0,0,1-1.07-1.05V306A2.32,2.32,0,0,1,338.41,305.71Zm10.95,6.56H353a.89.89,0,0,0,1-.93q0-.88,0-1.77a.89.89,0,0,0-.95-.93h-7.22a.91.91,0,0,0-.95,1v1.67a.91.91,0,0,0,1,1Z"/><text class="cls-6" transform="translate(380.82 332.75)">Restrooms</text><text class="cls-6" transform="translate(293.98 332.75)">Lift</text><text class="cls-8" transform="translate(301.17 138.47)">SAMBHAV STUDIO</text><path class="cls-5" d="M0,90H229.66A35.38,35.38,0,0,1,265,125.39v27.69a0,0,0,0,1,0,0H0a0,0,0,0,1,0,0V90A0,0,0,0,1,0,90Z"/><text class="cls-9" transform="translate(53.18 139.14)">2<tspan class="cls-10" x="37.44" y="0">nd foor</tspan></text></svg>